#!OML:ASF H:\Dans Jumps\Project 1\Capture day 1\Session 1\subject.ASF
:FULLY-SPECIFIED
:DEGREES
670
root 0.287259 17.7909 -1.88451 6.45671 -0.948679 -1.18365
lowerback -2.84486 -0.628688 -0.335499
upperback 2.9806 -0.902017 1.84113
thorax 4.70879 -0.494273 2.02989
lowerneck -10.9579 1.0547 -1.67258
upperneck 38.1832 2.25098 -0.600038
head 15.146 0.627012 0.396262
rclavicle 5.86415e-015 -3.02153e-014
rhumerus -25.0395 -14.9484 -81.4595
rradius 22.9631
rwrist 33.5287
rhand -20.6486 -26.4012
rfingers 7.12502
rthumb 5.71367 -56.3042
lclavicle 5.86415e-015 -3.02153e-014
lhumerus -21.5345 -7.16989 91.2836
lradius 17.222
lwrist 4.51852
lhand -26.1856 -5.52654
lfingers 7.12502
lthumb 0.366497 24.4529
rfemur -13.7475 -2.66382 19.3479
rtibia 20.6371
rfoot -11.9459 -2.29119
rtoes 14.9857
lfemur -11.6811 6.87194 -17.6928
ltibia 16.4195
lfoot -9.1455 2.27129
ltoes 4.83495
671
root 0.287285 17.7906 -1.88574 6.44933 -0.943519 -1.17965
lowerback -2.83697 -0.627314 -0.336971
upperback 2.98144 -0.900142 1.84298
thorax 4.70516 -0.493414 2.03284
lowerneck -10.9482 1.05819 -1.66825
upperneck 38.1556 2.25669 -0.606297
head 15.1303 0.629794 0.39356
rclavicle -3.23025e-015 1.78906e-014
rhumerus -25.0349 -14.9341 -81.4666
rradius 22.9637
rwrist 33.5314
rhand -20.6465 -26.3974
rfingers 7.12502
rthumb 5.71566 -56.3003
lclavicle -3.23025e-015 1.78906e-014
lhumerus -21.5224 -7.15254 91.2813
lradius 17.2164
lwrist 4.50527
lhand -26.1959 -5.52302
lfingers 7.12502
lthumb 0.356498 24.4564
rfemur -13.7468 -2.66233 19.3432
rtibia 20.6446
rfoot -11.9479 -2.29865
rtoes 14.9752
lfemur -11.6812 6.87584 -17.6966
ltibia 16.4249
lfoot -9.15105 2.26115
ltoes 4.84907
672
root 0.287228 17.7903 -1.88703 6.44293 -0.935475 -1.17635
lowerback -2.83161 -0.626925 -0.337499
upperback 2.98399 -0.899671 1.84475
thorax 4.7048 -0.493246 2.03504
lowerneck -10.9355 1.06117 -1.66749
upperneck 38.1216 2.26078 -0.608386
head 15.1105 0.632054 0.392941
rclavicle -1.49089e-016 -3.37934e-014
rhumerus -25.0231 -14.9346 -81.4725
rradius 22.9551
rwrist 33.5489
rhand -20.6518 -26.3844
rfingers 7.12502
rthumb 5.71053 -56.2874
lclavicle -1.49089e-016 -3.37934e-014
lhumerus -21.5085 -7.13715 91.2785
lradius 17.2129
lwrist 4.48931
lhand -26.2018 -5.52076
lfingers 7.12502
lthumb 0.35084 24.4587
rfemur -13.7472 -2.66036 19.3399
rtibia 20.6525
rfoot -11.949 -2.3092
rtoes 14.962
lfemur -11.684 6.88082 -17.6993
ltibia 16.4318
lfoot -9.15575 2.24732
ltoes 4.85672
673
root 0.287136 17.79 -1.88828 6.43704 -0.926982 -1.17217
lowerback -2.82905 -0.626269 -0.337641
upperback 2.9881 -0.898851 1.84526
thorax 4.7076 -0.492892 2.03573
lowerneck -10.9189 1.06353 -1.66979
upperneck 38.081 2.26299 -0.60647
head 15.0865 0.633741 0.394198
rclavicle 5.96354e-016 -6.75868e-015
rhumerus -25.0094 -14.9388 -81.4801
rradius 22.9474
rwrist 33.5664
rhand -20.6579 -26.3749
rfingers 7.12502
rthumb 5.70464 -56.2781
lclavicle 5.96354e-016 -6.75868e-015
lhumerus -21.4946 -7.12489 91.2747
lradius 17.2117
lwrist 4.46775
lhand -26.2045 -5.51755
lfingers 7.12502
lthumb 0.348212 24.4619
rfemur -13.7489 -2.66012 19.3357
rtibia 20.6616
rfoot -11.9506 -2.31861
rtoes 14.9576
lfemur -11.6879 6.8879 -17.7032
ltibia 16.439
lfoot -9.16037 2.23113
ltoes 4.85704
674
root 0.286967 17.7896 -1.88961 6.4317 -0.916904 -1.17003
lowerback -2.82648 -0.626218 -0.335809
upperback 2.99239 -0.898981 1.84669
thorax 4.71063 -0.492963 2.03619
lowerneck -10.9017 1.06587 -1.67466
upperneck 38.0379 2.26522 -0.603033
head 15.061 0.635318 0.396532
rclavicle -2.78299e-015 -3.97569e-016
rhumerus -24.9941 -14.9408 -81.4881
rradius 22.9389
rwrist 33.5821
rhand -20.6647 -26.3698
rfingers 7.12502
rthumb 5.69812 -56.2732
lclavicle -2.78299e-015 -3.97569e-016
lhumerus -21.4822 -7.11681 91.2721
lradius 17.2155
lwrist 4.44935
lhand -26.2051 -5.51851
lfingers 7.12502
lthumb 0.347699 24.461
rfemur -13.7516 -2.65888 19.334
rtibia 20.6714
rfoot -11.9523 -2.32941
rtoes 14.9598
lfemur -11.6931 6.8932 -17.7046
ltibia 16.4454
lfoot -9.16268 2.21499
ltoes 4.85223
675
root 0.28682 17.7893 -1.89093 6.42642 -0.905868 -1.16563
lowerback -2.82324 -0.626908 -0.336267
upperback 2.99617 -0.899981 1.84828
thorax 4.7128 -0.49354 2.03806
lowerneck -10.8831 1.06882 -1.68084
upperneck 37.9937 2.26905 -0.600611
head 15.0348 0.63728 0.398903
rclavicle 1.44119e-015 1.98785e-015
rhumerus -24.982 -14.9408 -81.4948
rradius 22.9343
rwrist 33.5962
rhand -20.6696 -26.3682
rfingers 7.12502
rthumb 5.69332 -56.2717
lclavicle 1.44119e-015 1.98785e-015
lhumerus -21.4724 -7.11486 91.2724
lradius 17.2217
lwrist 4.43624
lhand -26.2074 -5.52112
lfingers 7.12502
lthumb 0.345474 24.4583
rfemur -13.7547 -2.65848 19.3296
rtibia 20.6819
rfoot -11.9541 -2.34001
rtoes 14.9629
lfemur -11.6977 6.89434 -17.7083
ltibia 16.45
lfoot -9.16285 2.20071
ltoes 4.85165
676
root 0.286694 17.7891 -1.89216 6.41985 -0.896745 -1.16133
lowerback -2.8183 -0.627685 -0.336818
upperback 2.99959 -0.901114 1.85077
thorax 4.71365 -0.494195 2.0409
lowerneck -10.8643 1.07269 -1.68706
upperneck 37.9492 2.27521 -0.600741
head 15.0084 0.639888 0.400558
rclavicle -7.05686e-015 -3.97569e-016
rhumerus -24.9719 -14.9377 -81.4995
rradius 22.9305
rwrist 33.6116
rhand -20.6761 -26.3725
rfingers 7.12502
rthumb 5.68708 -56.2762
lclavicle -7.05686e-015 -3.97569e-016
lhumerus -21.4637 -7.1155 91.2747
lradius 17.2303
lwrist 4.43158
lhand -26.2025 -5.52381
lfingers 7.12502
lthumb 0.350159 24.4556
rfemur -13.7563 -2.6584 19.325
rtibia 20.6922
rfoot -11.9564 -2.34822
rtoes 14.9695
lfemur -11.6997 6.89389 -17.7119
ltibia 16.4537
lfoot -9.16158 2.18975
ltoes 4.84352
677
root 0.286555 17.7888 -1.89342 6.41222 -0.888425 -1.15739
lowerback -2.81094 -0.628772 -0.337825
upperback 3.00277 -0.902655 1.85408
thorax 4.71293 -0.495076 2.04486
lowerneck -10.8438 1.0773 -1.69186
upperneck 37.9038 2.28324 -0.604179
head 14.9813 0.643074 0.400844
rclavicle 9.98893e-015 -9.54166e-015
rhumerus -24.9659 -14.9241 -81.5051
rradius 22.9345
rwrist 33.6174
rhand -20.6803 -26.3796
rfingers 7.12502
rthumb 5.68302 -56.2834
lclavicle 9.98893e-015 -9.54166e-015
lhumerus -21.4551 -7.12388 91.2798
lradius 17.2393
lwrist 4.44058
lhand -26.1993 -5.52892
lfingers 7.12502
lthumb 0.353221 24.4505
rfemur -13.7563 -2.65678 19.3207
rtibia 20.7013
rfoot -11.9577 -2.35778
rtoes 14.968
lfemur -11.6999 6.89428 -17.7149
ltibia 16.4565
lfoot -9.16078 2.17903
ltoes 4.8409
678
root 0.286405 17.7886 -1.89462 6.40435 -0.882574 -1.15578
lowerback -2.80306 -0.628619 -0.336606
upperback 3.00588 -0.902659 1.85774
thorax 4.71173 -0.49512 2.04802
lowerneck -10.8246 1.08195 -1.69464
upperneck 37.8589 2.29142 -0.609233
head 14.9549 0.646391 0.400128
rclavicle -6.01324e-015 1.23246e-014
rhumerus -24.961 -14.9103 -81.5103
rradius 22.9394
rwrist 33.6226
rhand -20.6844 -26.3841
rfingers 7.12502
rthumb 5.67903 -56.288
lclavicle -6.01324e-015 1.23246e-014
lhumerus -21.4469 -7.14114 91.2874
lradius 17.2483
lwrist 4.45698
lhand -26.2001 -5.54076
lfingers 7.12502
lthumb 0.352482 24.4387
rfemur -13.7554 -2.65375 19.319
rtibia 20.7086
rfoot -11.958 -2.36658
rtoes 14.9618
lfemur -11.6997 6.89448 -17.7154
ltibia 16.4607
lfoot -9.16061 2.1714
ltoes 4.8374
679
root 0.286212 17.7884 -1.89581 6.39605 -0.879146 -1.1557
lowerback -2.794 -0.626911 -0.333988
upperback 3.00903 -0.900627 1.86097
thorax 4.70981 -0.494094 2.05012
lowerneck -10.8066 1.08586 -1.69346
upperneck 37.8152 2.2979 -0.615357
head 14.9294 0.649381 0.398016
rclavicle -1.71452e-014 2.3059e-014
rhumerus -24.9577 -14.8953 -81.5169
rradius 22.9471
rwrist 33.6223
rhand -20.6906 -26.3878
rfingers 7.12502
rthumb 5.67308 -56.2919
lclavicle -1.71452e-014 2.3059e-014
lhumerus -21.4389 -7.16766 91.2961
lradius 17.257
lwrist 4.47876
lhand -26.2086 -5.55568
lfingers 7.12502
lthumb 0.344251 24.4238
rfemur -13.7536 -2.64787 19.3191
rtibia 20.7141
rfoot -11.9571 -2.37554
rtoes 14.9543
lfemur -11.6988 6.89622 -17.7138
ltibia 16.4671
lfoot -9.16261 2.16527
ltoes 4.84209
680
root 0.285937 17.7882 -1.89711 6.389 -0.876494 -1.15691
lowerback -2.78502 -0.624115 -0.329811
upperback 3.01158 -0.89719 1.8637
thorax 4.7072 -0.492298 2.05091
lowerneck -10.787 1.08822 -1.69389
upperneck 37.7707 2.30082 -0.617264
head 14.9032 0.651216 0.397386
rclavicle -4.67144e-015 -1.19271e-015
rhumerus -24.9541 -14.8826 -81.5236
rradius 22.9525
rwrist 33.6228
rhand -20.6974 -26.3885
rfingers 7.12502
rthumb 5.66648 -56.2927
lclavicle -4.67144e-015 -1.19271e-015
lhumerus -21.4334 -7.19966 91.3058
lradius 17.2689
lwrist 4.5091
lhand -26.2191 -5.56869
lfingers 7.12502
lthumb 0.334105 24.4108
rfemur -13.7524 -2.63931 19.3207
rtibia 20.718
rfoot -11.9553 -2.38537
rtoes 14.9533
lfemur -11.6999 6.89719 -17.7106
ltibia 16.4763
lfoot -9.16544 2.16151
ltoes 4.84708
681
root 0.285633 17.7881 -1.8984 6.38422 -0.876099 -1.15802
lowerback -2.77734 -0.620272 -0.325789
upperback 3.01312 -0.892323 1.86611
thorax 4.70422 -0.489782 2.05154
lowerneck -10.7679 1.09004 -1.69365
upperneck 37.7283 2.3027 -0.618851
head 14.8781 0.652715 0.396627
rclavicle 9.44227e-015 -4.77083e-015
rhumerus -24.9524 -14.8699 -81.5304
rradius 22.9595
rwrist 33.6229
rhand -20.7001 -26.3919
rfingers 7.12502
rthumb 5.66394 -56.2962
lclavicle 9.44227e-015 -4.77083e-015
lhumerus -21.4295 -7.22752 91.3152
lradius 17.28
lwrist 4.5391
lhand -26.2344 -5.58875
lfingers 7.12502
lthumb 0.319308 24.3908
rfemur -13.7539 -2.63135 19.3224
rtibia 20.7215
rfoot -11.9534 -2.39121
rtoes 14.9599
lfemur -11.7038 6.89955 -17.7079
ltibia 16.4875
lfoot -9.1695 2.15862
ltoes 4.85256
682
root 0.285288 17.7879 -1.89973 6.38245 -0.876378 -1.16057
lowerback -2.77177 -0.616307 -0.320752
upperback 3.01331 -0.887369 1.86923
thorax 4.70102 -0.487193 2.05234
lowerneck -10.7481 1.09135 -1.69472
upperneck 37.687 2.30361 -0.619009
head 14.8534 0.653789 0.396546
rclavicle -6.60959e-015 -8.34896e-015
rhumerus -24.9503 -14.8536 -81.5374
rradius 22.9655
rwrist 33.6178
rhand -20.7026 -26.3937
rfingers 7.12502
rthumb 5.66153 -56.2981
lclavicle -6.60959e-015 -8.34896e-015
lhumerus -21.4275 -7.24181 91.323
lradius 17.291
lwrist 4.56076
lhand -26.2446 -5.60095
lfingers 7.12502
lthumb 0.309533 24.3786
rfemur -13.7588 -2.62441 19.326
rtibia 20.7249
rfoot -11.9511 -2.3946
rtoes 14.969
lfemur -11.7117 6.90297 -17.7041
ltibia 16.4998
lfoot -9.17374 2.15688
ltoes 4.84408
